<?xml version="1.0" encoding="iso-8859-1"?>
<!-- Generator: Adobe Illustrator 19.0.0, SVG Export Plug-In . SVG Version: 6.00 Build 0)  -->
<svg version="1.1" id="Layer_1" xmlns="http://www.w3.org/2000/svg" xmlns:xlink="http://www.w3.org/1999/xlink" x="0px" y="0px"
	 viewBox="0 0 512.003 512.003" style="enable-background:new 0 0 512.003 512.003;" xml:space="preserve">
<path style="fill:#CFDCE5;" d="M417.088,134.027h-7.578c-7.793-32.508-36.848-55.44-70.276-55.456
	c-8.057,0.144-16.042,1.559-23.66,4.18c-22.533-63.713-92.441-97.093-156.154-74.568C110.743,25.4,78.108,71.321,77.86,122.957
	c0,4.236,0.232,8.409,0.639,12.541C27.311,144.05-7.259,192.489,1.302,243.677c7.601,45.497,47.104,78.748,93.232,78.485H417.04
	c51.955,0.496,94.463-41.221,94.958-93.176s-41.221-94.463-93.176-94.958C418.247,134.019,417.664,134.019,417.088,134.027z"/>
<g>
	
		<rect x="66.794" y="422.576" transform="matrix(0.4921 -0.8705 0.8705 0.4921 -310.285 345.2841)" style="fill:#25B6D2;" width="147.956" height="31.971"/>
	
		<rect x="180.836" y="422.602" transform="matrix(0.4921 -0.8705 0.8705 0.4921 -252.3902 444.5711)" style="fill:#25B6D2;" width="147.948" height="31.971"/>
	
		<rect x="294.943" y="422.585" transform="matrix(0.4921 -0.8705 0.8705 0.4921 -194.4202 543.8992)" style="fill:#25B6D2;" width="147.956" height="31.971"/>
</g>
<g>
</g>
<g>
</g>
<g>
</g>
<g>
</g>
<g>
</g>
<g>
</g>
<g>
</g>
<g>
</g>
<g>
</g>
<g>
</g>
<g>
</g>
<g>
</g>
<g>
</g>
<g>
</g>
<g>
</g>
</svg>
